<svg xmlns="http://www.w3.org/2000/svg" xmlns:xlink="http://www.w3.org/1999/xlink" version="1.1" x="0px" y="0px" viewBox="0 0 64 80" style="enable-background:new 0 0 64 64;" xml:space="preserve"><g><path d="M42,1c-11.579,0-21,9.42-21,21c0,3.808,1.035,7.372,2.814,10.455L4.19,47.99C2.163,49.596,1,52,1,54.586   C1,59.226,4.774,63,9.413,63c2.587,0,4.992-1.163,6.598-3.191l15.534-19.623C34.628,41.965,38.192,43,42,43c11.579,0,21-9.42,21-21   S53.579,1,42,1z M14.442,58.567C13.219,60.113,11.386,61,9.413,61C5.877,61,3,58.123,3,54.586c0-1.971,0.887-3.804,2.433-5.028   l15.984-12.654c1.246,2.441,3.239,4.433,5.68,5.679L14.442,58.567z M28.375,40.968c-2.353-1.094-4.248-2.988-5.343-5.342   l1.869-1.479c1.364,1.915,3.039,3.589,4.953,4.953L28.375,40.968z M42,41c-10.477,0-19-8.523-19-19S31.523,3,42,3s19,8.523,19,19   S52.477,41,42,41z"/><path d="M42,5c-9.374,0-17,7.626-17,17s7.626,17,17,17s17-7.626,17-17S51.374,5,42,5z M42,37c-8.271,0-15-6.729-15-15   S33.729,7,42,7s15,6.729,15,15S50.271,37,42,37z"/><path d="M16,44c-2.206,0-4,1.794-4,4s1.794,4,4,4s4-1.794,4-4S18.206,44,16,44z M16,50c-1.103,0-2-0.897-2-2s0.897-2,2-2   s2,0.897,2,2S17.103,50,16,50z"/><rect x="19.586" y="42" transform="matrix(0.7071 -0.7071 0.7071 0.7071 -24.2548 27.4437)" width="2.828" height="2"/><path d="M44,15c1.654,0,3-1.346,3-3s-1.346-3-3-3c-1.317,0-2.427,0.859-2.829,2.042C35.493,11.468,31,16.214,31,22h2   c0-4.691,3.609-8.551,8.197-8.959C41.622,14.181,42.713,15,44,15z M44,11c0.552,0,1,0.449,1,1s-0.448,1-1,1s-1-0.449-1-1   S43.448,11,44,11z"/><path d="M51,22c0,4.691-3.609,8.551-8.197,8.959C42.378,29.819,41.287,29,40,29c-1.654,0-3,1.346-3,3s1.346,3,3,3   c1.317,0,2.427-0.859,2.829-2.042C48.507,32.532,53,27.786,53,22H51z M40,33c-0.552,0-1-0.449-1-1s0.448-1,1-1s1,0.449,1,1   S40.552,33,40,33z"/></g><text x="0" y="79" fill="#000000" font-size="5px" font-weight="bold" font-family="'Helvetica Neue', Helvetica, Arial-Unicode, Arial, Sans-serif">Created by Eucalyp</text><text x="0" y="84" fill="#000000" font-size="5px" font-weight="bold" font-family="'Helvetica Neue', Helvetica, Arial-Unicode, Arial, Sans-serif">from the Noun Project</text></svg>