<svg xmlns="http://www.w3.org/2000/svg" data-name="Layer 1" viewBox="0 0 100 125" x="0px" y="0px"><path d="M87.012,5.5A4.7,4.7,0,0,0,83.8,6.67L31.772,53.964C12.125,55.553,5.784,91.211,5.521,92.744c-.007.044,0,.087-.009.131s-.007.072-.007.109a1.326,1.326,0,0,0,.014.2c0,.023,0,.046,0,.069a.146.146,0,0,1,.007.019,1.519,1.519,0,0,0,.162.446c.013.023.025.045.039.068a1.5,1.5,0,0,0,.285.337c.022.019.045.035.067.053a1.5,1.5,0,0,0,.385.222c.022.009.045.012.067.019a1.473,1.473,0,0,0,.212.059,1.645,1.645,0,0,0,.22.018c.012,0,.022.006.033.006a1.564,1.564,0,0,0,.254-.021A93.423,93.423,0,0,0,26,88.87a1.5,1.5,0,1,0-1.176-2.76A92.012,92.012,0,0,1,8.916,91.086c1.656-7.6,8.245-32.759,22.954-34.119l1.909,1.908L24.354,68.3a1.5,1.5,0,0,0,2.121,2.121L35.9,61l3.061,3.061L32.9,70.115a1.5,1.5,0,1,0,2.121,2.121l6.058-6.057,1.955,1.955c-.558,6.038-5.185,11.381-13.791,15.887a1.5,1.5,0,1,0,1.391,2.658c9.665-5.06,14.835-11.274,15.4-18.472l7.6-8.354a1.5,1.5,0,1,0-2.213-2.026l-.57.626-9.314-9.315,4.728-4.3,8.879,8.878-.365.4A1.5,1.5,0,1,0,57,56.14l1.255-1.38c.01-.009.023-.012.033-.022s.02-.037.035-.053l6.252-6.871c.006-.005.013-.007.019-.012s.011-.021.02-.03l6.917-7.6a1.5,1.5,0,1,0-2.22-2.018l-5.834,6.413-8.049-8.049L85.815,8.9a1.73,1.73,0,0,1,1.2-.4,4.511,4.511,0,0,1,3.04,1.44c1.537,1.538,1.786,3.427,1.05,4.231l-18.42,20.27a1.5,1.5,0,1,0,2.22,2.018L93.318,16.192c1.937-2.116,1.434-5.794-1.141-8.369A7.443,7.443,0,0,0,87.012,5.5ZM48.836,60.675,44.542,65.4,34.6,55.451l4.722-4.293Zm12.621-13.89L57.17,51.5l-8.678-8.677,4.715-4.286Z"/><text x="0" y="115" fill="#000000" font-size="5px" font-weight="bold" font-family="'Helvetica Neue', Helvetica, Arial-Unicode, Arial, Sans-serif">Created by ifki</text><text x="0" y="120" fill="#000000" font-size="5px" font-weight="bold" font-family="'Helvetica Neue', Helvetica, Arial-Unicode, Arial, Sans-serif">from the Noun Project</text></svg>