<svg xmlns="http://www.w3.org/2000/svg" xmlns:xlink="http://www.w3.org/1999/xlink" version="1.1" x="0px" y="0px" viewBox="0 0 512 640" style="enable-background:new 0 0 512 512;" xml:space="preserve"><g><path d="M392.3,84h-47.7l-0.3-2.5c-1.9-15-14.6-26.3-29.8-26.5h-13.2c-1-25-22.1-44.5-47.1-43.5   c-23.7,0.9-42.6,19.9-43.5,43.5h-13.2c-15.1,0.2-27.9,11.5-29.8,26.5l-0.3,2.5h-47.7c-27.3-0.1-49.6,22-49.7,49.3   c0,0.1,0,0.2,0,0.3v316.7c-0.1,27.3,22,49.6,49.4,49.6c0.1,0,0.2,0,0.3,0h272.6c27.3,0.1,49.6-22,49.7-49.3c0-0.1,0-0.2,0-0.3   V133.7c0.1-27.3-22-49.6-49.4-49.7C392.5,84,392.4,84,392.3,84z M187.5,83.8c0.6-5,4.9-8.8,9.9-8.8h23.2c5.5,0,10.4-4.3,10.4-9.8   V57c0-13.8,11.2-25,25-25c13.8,0,25,11.2,25,25v8.2c0,5.5,4.8,9.8,10.4,9.8h23.2c5.1,0.1,9.3,3.8,9.9,8.8l4.3,34.2H183.2   L187.5,83.8z M422,450.4c0.1,16.3-13,29.6-29.3,29.6c-0.1,0-0.3,0-0.4,0H119.7c-16.3,0.1-29.6-13-29.7-29.3c0-0.1,0-0.3,0-0.4   V133.7c-0.1-16.3,13-29.6,29.3-29.7c0.1,0,0.3,0,0.4,0h45.1l-2.9,22.9c-0.4,2.8,0.5,5.7,2.4,7.8c1.9,2.1,4.6,3.3,7.5,3.3h168.3   c2.9,0,5.6-1.2,7.5-3.4c1.9-2.1,2.8-4.9,2.4-7.7l-2.9-22.9h45.1c16.3-0.1,29.6,13,29.7,29.3c0,0.1,0,0.3,0,0.4V450.4z"/><path d="M349.7,415H162.3c-5.5,0-10,4.5-10,10s4.5,10,10,10h187.5c5.5,0,10-4.5,10-10S355.3,415,349.7,415z"/><path d="M359.1,166.6l-55.4-4c-5.5-0.4-10.3,3.8-10.7,9.3c-0.4,5.5,3.8,10.3,9.3,10.7l29.4,2.1l-62.3,48.4l-52.9-41.7   c-3.9-3.1-9.5-2.8-13.1,0.6l-56.7,54.4c-4,3.8-4.2,10.1-0.5,14.1s10.1,4.2,14.1,0.5c0.1-0.1,0.1-0.1,0.2-0.2l50.4-48.4l52.2,41.1   c3.6,2.8,8.7,2.9,12.3,0l71.2-55.3l-2.2,28.9c-0.4,5.5,3.7,10.3,9.2,10.7c0.3,0,0.5,0,0.8,0c5.2,0,9.6-4,10-9.2l4-51.4   C368.8,171.9,364.7,167.1,359.1,166.6C359.1,166.7,359.1,166.7,359.1,166.6z"/><path d="M284,291c0-5.5-4.5-10-10-10h-35c-5.5,0-10,4.5-10,10v83c0,5.5,4.5,10,10,10h35c5.5,0,10-4.5,10-10   V291z M249,301h14v62h-14V301z"/><path d="M213,314c0-5.5-4.5-10-10-10h-35c-5.5,0-10,4.5-10,10v59c0,5.5,4.5,10,10,10h35c5.5,0,10-4.5,10-10   V314z M178,324h15v39h-15V324z"/><path d="M354,273c0-5.5-4.5-10-10-10h-35c-5.5,0-10,4.5-10,10v100c0,5.5,4.5,10,10,10h35c5.5,0,10-4.5,10-10   V273z M319,283h15v80h-15V283z"/></g><text x="0" y="527" fill="#000000" font-size="5px" font-weight="bold" font-family="'Helvetica Neue', Helvetica, Arial-Unicode, Arial, Sans-serif">Created by Drishya</text><text x="0" y="532" fill="#000000" font-size="5px" font-weight="bold" font-family="'Helvetica Neue', Helvetica, Arial-Unicode, Arial, Sans-serif">from the Noun Project</text></svg>